<svg xmlns="http://www.w3.org/2000/svg" version="1.1" xmlns:xlink="http://www.w3.org/1999/xlink" xmlns:svgjs="http://svgjs.dev/svgjs" width="100%" height="100%" viewBox="0 0 1000 600"><rect width="1000" height="600" x="0" y="0" fill="#050505"/><g><circle r="166.66666666666666" cx="452.6305948893229" cy="474.8529876073186" fill="#ffffff" transform="matrix(0.4371178109905442,0,0,0.43711781099054425,0,92.43329641295442)"/><path d="M523.0446735391745 549.8529875574429L382.21656894402054 549.8529875574429L382.21656894402054 531.4788225196883L501.6030859083402 531.4788225196883L501.6030859083402 497.5853213921938L523.0446735391745 497.5853213921938L523.0446735391745 549.8529875574429ZM432.96570907309155 539.5877515528791L410.430782696209 539.5877515528791L410.430782696209 411.21156045438534L432.96570907309155 411.21156045438534L432.96570907309155 539.5877515528791ZM460.93695865949155 418.22715074152796L382.21656894402054 418.22715074152796L382.21656894402054 399.8529857037734L460.93695865949155 399.8529857037734L460.93695865949155 418.22715074152796Z " fill="#050505" transform="matrix(0.4371178109905442,0,0,0.43711781099054425,0,92.43329641295442)"/><path d="M840.4451533678092 546.6431511071874L702.6306238245427 546.6431511071874L702.6306238245427 528.6621741018657L819.4623934244091 528.6621741018657L819.4623934244091 495.49395866725587L840.4451533678092 495.49395866725587L840.4451533678092 546.6431511071874ZM752.2937851070094 536.5975804827266L730.2410827302349 536.5975804827266L730.2410827302349 410.9685064306697L752.2937851070094 410.9685064306697L752.2937851070094 536.5975804827266ZM779.6664790275072 417.83397037815615L702.6306238245427 417.83397037815615L702.6306238245427 399.85299337283453L779.6664790275072 399.85299337283453L779.6664790275072 417.83397037815615ZM915.5491680660699 549.6449340452657L915.5491680660699 549.6449340452657Q905.0577880943698 549.6449340452657 895.1310999625064 546.316224252545Q885.1746912074935 543.0172350829737 877.1501229571847 536.5975804827266Q869.125554706876 530.1779258824795 864.3999756261385 520.6376058515568Q859.7041171685504 511.12700644378344 859.7041171685504 498.7037859673794L859.7041171685504 498.7037859673794Q859.7041171685504 485.4483880427952 864.5188581187357 475.1650524331402Q869.333599068921 464.9114374466345 877.477049811827 457.83792913710306Q885.5907799315836 450.7644208275716 895.6660711791936 447.0196223107608Q905.7116418036543 443.27482379395 916.4110661373993 443.27482379395L916.4110661373993 443.27482379395Q929.2503753378934 443.27482379395 939.0879016003091 447.25738729595514Q948.9254278627246 451.21023017481093 954.6020668842394 458.37290035379027Q960.2787059057542 465.53557053276967 960.2787059057542 475.1650524331402L960.2787059057542 475.1650524331402Q960.2787059057542 485.0025786955558 954.3940225221944 491.65999828099723Q948.5093391386346 498.28769724328936 939.0879016003091 501.58668641286073Q929.6664640619836 504.91539620558143 919.2048047134327 504.91539620558143L919.2048047134327 504.91539620558143Q906.1277305277443 504.91539620558143 895.7552330486415 501.82445139805503Q885.3827355695386 498.7037859673794 875.545209307123 494.2159718718363L875.545209307123 494.2159718718363L875.3371649450779 481.3766626713422Q886.6607223649581 486.31028611412466 896.2010423958808 488.2124059956794Q905.7116418036543 490.14424650038336 914.6872699947404 490.14424650038336L914.6872699947404 490.14424650038336Q921.5527339422268 490.14424650038336 926.9916079785472 488.4501709808737Q932.460202638017 486.7263748382148 935.8780743001855 483.3085031760462Q939.2959459623542 479.8906315138776 939.2959459623542 475.1650524331402L939.2959459623542 475.1650524331402Q939.2959459623542 468.3293091088031 933.3221007093464 464.1387012447529Q927.3185348331895 459.9778140038521 917.8970972948639 459.9778140038521L917.8970972948639 459.9778140038521Q910.8533096084818 459.9778140038521 904.1067281535925 462.6526700872883Q897.3601466987033 465.3275261707246 891.9212726623829 470.26114961350703Q886.4526780029131 475.1650524331402 883.1239682101924 482.1196782500745Q879.824979040621 489.0743040670088 879.824979040621 498.0796528812443L879.824979040621 498.0796528812443Q879.824979040621 508.54131222979504 884.9666468454485 516.1497917560138Q890.0785940271267 523.7582712822325 898.3409272626299 527.7111141610883Q906.5735398749837 531.6639570399441 916.2030217753543 531.6639570399441L916.2030217753543 531.6639570399441Q928.180432904519 531.6639570399441 937.2749435882023 527.7111141610883Q946.3694542718855 523.7582712822325 953.4429625814171 517.7547054060756L953.4429625814171 517.7547054060756L962.4185907725032 531.6639570399441Q956.4150248963463 536.8056248447717 949.460399079412 540.8773502162246Q942.5057732624776 544.9193549645283 934.0651162880787 547.2970048164716Q925.6244593136798 549.6449340452657 915.5491680660699 549.6449340452657ZM1077.9723735769503 548.3669472498461L1077.9723735769503 548.3669472498461Q1071.7607633387483 548.3669472498461 1066.856860519115 545.2462818191705Q1061.9232370763325 542.1553370116442 1059.0403366308512 536.1517711354873Q1056.15743618537 530.1779258824795 1056.15743618537 521.8264307775285L1056.15743618537 521.8264307775285L1056.15743618537 482.2385607426717Q1056.15743618537 474.54091934700506 1052.5017995380072 469.93422275886485Q1048.8758835137933 465.3275261707246 1042.9912001302337 463.18764130397557Q1037.1065167466736 461.04775643722655 1029.8249640750973 461.04775643722655L1029.8249640750973 461.04775643722655Q1020.1954821747266 461.04775643722655 1010.149911550266 463.6037300280657Q1000.0746203026561 466.18942424205403 989.8210053161504 470.4691939755521L989.8210053161504 470.4691939755521L985.3034705974579 453.9742481276951Q996.8647930025326 449.0703453080619 1008.8422041316973 446.1874448625806Q1020.8493358840111 443.27482379395 1032.3809376659365 443.27482379395L1032.3809376659365 443.27482379395Q1046.08214493776 443.27482379395 1055.9196712001756 447.79235851264235Q1065.7869180857406 452.28017260818547 1071.017747760016 461.04775643722655Q1076.2485774342913 469.8153402662677 1076.2485774342913 483.1004588140012L1076.2485774342913 483.1004588140012L1076.2485774342913 520.1026346348697Q1076.2485774342913 525.6603911637872 1078.180417938995 528.1272028851783Q1080.1122584436991 530.5940146065695 1083.5301301058678 530.5940146065695L1083.5301301058678 530.5940146065695Q1085.4619706105718 530.5940146065695 1087.1857667532308 529.9401608972853Q1088.8798422727405 529.31602781115 1090.1578290681598 528.8702184639108L1090.1578290681598 528.8702184639108L1094.6753637868524 544.0871775163482Q1092.2977139349089 545.5732086738128 1087.9287823319628 546.9700779618295Q1083.5301301058678 548.3669472498461 1077.9723735769503 548.3669472498461ZM1014.6377256458092 549.6449340452657L1014.6377256458092 549.6449340452657Q1005.2162881074836 549.6449340452657 997.0728373645776 545.9892973979029Q988.9591072448209 542.3633813736892 984.1443662946357 535.2007111947098Q979.3296253444504 528.0380410157305 979.3296253444504 517.5466610440305L979.3296253444504 517.5466610440305Q979.3296253444504 506.8472367102854 985.4223530900551 499.4468015461117Q991.5150808356601 492.07608700508735 1001.1445627360306 488.3312884882765Q1010.7740446364011 484.58648997146577 1021.6815133321912 484.58648997146577L1021.6815133321912 484.58648997146577Q1034.3127781706403 484.58648997146577 1043.734215708966 487.4693904169471Q1053.1556532472914 490.3522908624284 1063.201223871752 494.6320605959264L1063.201223871752 494.6320605959264L1063.201223871752 508.33326786775Q1051.8776664518718 503.42936504811684 1042.5453907829942 501.82445139805503Q1033.242835737266 500.2195377479933 1025.3371499795544 500.2195377479933L1025.3371499795544 500.2195377479933Q1018.709451017262 499.981772762799 1013.0328119957474 501.91361326750297Q1007.3561729742325 503.8454537722069 1003.730256950019 507.4713697964205Q1000.0746203026561 511.12700644378344 1000.0746203026561 516.8928073347461L1000.0746203026561 516.8928073347461Q1000.0746203026561 521.8264307775285 1002.8683588786895 525.2443024396971Q1005.6323768315737 528.6621741018657 1010.2390734197139 530.2670877519274Q1014.8457700078542 531.8720014019891 1019.9874378126817 531.8720014019891L1019.9874378126817 531.8720014019891Q1025.5451943415992 531.8720014019891 1032.6187026511307 529.6429546657923Q1039.6624903375127 527.3841873064462 1047.4790142257766 522.688328848858Q1055.2955381140405 517.9627497681206 1063.201223871752 510.9189620817384L1063.201223871752 510.9189620817384L1062.785135147662 525.4523468017421Q1055.5035824760853 532.7338994733186 1047.4790142257766 538.2024941327884Q1039.454445975468 543.6413681691088 1031.221833363114 546.6431511071874Q1022.9892207507601 549.6449340452657 1014.6377256458092 549.6449340452657ZM1140.682888421956 496.14781237654034L1140.682888421956 496.14781237654034L1140.682888421956 479.4448221666383Q1148.5885741796678 468.9534421949382 1157.5642023707537 460.7208295825844Q1166.5695511849895 452.4882169702305 1176.19903308536 447.8815203820903Q1185.8285149857306 443.27482379395 1195.4579968861012 443.27482379395L1195.4579968861012 443.27482379395L1204.4336250771871 443.27482379395L1204.4336250771871 486.31028611412466L1186.0365593477754 486.31028611412466L1186.0365593477754 464.0495393753051Q1179.4088603854834 464.0495393753051 1171.919263351862 467.8834997615637Q1164.4296663182404 471.7471807709716 1156.4942599373794 478.909850949951Q1148.5885741796678 486.07252112893036 1140.682888421956 496.14781237654034ZM1170.4035115712481 546.6431511071874L1103.6509919779382 546.6431511071874L1103.6509919779382 529.7321165352402L1170.4035115712481 529.7321165352402L1170.4035115712481 546.6431511071874ZM1147.518631746293 541.9472926495991L1126.327827440848 541.9472926495991L1126.327827440848 445.8605180079384L1147.518631746293 445.8605180079384L1147.518631746293 541.9472926495991ZM1146.2406449508735 462.7715525798855L1103.6509919779382 462.7715525798855L1103.6509919779382 445.8605180079384L1146.2406449508735 445.8605180079384L1146.2406449508735 462.7715525798855ZM1347.8059111493712 546.6431511071874L1326.8528718291209 546.6431511071874L1326.8528718291209 488.00436163363435Q1326.8528718291209 482.2385607426717 1325.3371200485067 477.63186415453146Q1323.8510888910423 473.0251675663912 1320.9681884455608 469.7261783968198Q1318.0555673769304 466.3974686040991 1313.8946801360294 464.67367246144016Q1309.7337928951283 462.97959694193054 1304.1463157430617 462.97959694193054L1304.1463157430617 462.97959694193054Q1298.380514852099 462.97959694193054 1292.495831468539 465.20864367812743Q1286.6111480849795 467.4674110374736 1280.6075822088224 471.86606326356883Q1274.6337369558148 476.23499486651474 1268.749053572255 482.32772261211954Q1262.8643701886951 488.4501709808737 1256.8608043125382 496.14781237654034L1256.8608043125382 496.14781237654034L1256.8608043125382 479.0287334425482Q1263.7262682600244 470.67723833759715 1270.2350847297193 464.0495393753051Q1276.7736218225637 457.42184041301294 1283.2824382922586 452.6962613322755Q1289.8209753851029 448.00040287468744 1296.7756012020373 445.6524736458934Q1303.7302270189716 443.27482379395 1311.4278684146384 443.27482379395L1311.4278684146384 443.27482379395Q1320.1954522436795 443.27482379395 1326.9420336985686 445.94967987738625Q1333.6886151534577 448.6245359608226 1338.2953117415982 454.21201311288945Q1342.9020083297382 459.769769641807 1345.3390994279803 468.00238225416086Q1347.8059111493712 476.23499486651474 1347.8059111493712 487.3802285474992L1347.8059111493712 487.3802285474992L1347.8059111493712 546.6431511071874ZM1283.401320784856 546.6431511071874L1221.1366152870892 546.6431511071874L1221.1366152870892 529.7321165352402L1283.401320784856 529.7321165352402L1283.401320784856 546.6431511071874ZM1265.0042550554442 546.6431511071874L1243.813450749999 546.6431511071874L1243.813450749999 445.8605180079384L1265.0042550554442 445.8605180079384L1265.0042550554442 546.6431511071874ZM1260.516440959901 462.7715525798855L1221.1366152870892 462.7715525798855L1221.1366152870892 445.8605180079384L1260.516440959901 445.8605180079384L1260.516440959901 462.7715525798855ZM1367.7187286593971 546.6431511071874L1308.2180411145146 546.6431511071874L1308.2180411145146 529.7321165352402L1367.7187286593971 529.7321165352402L1367.7187286593971 546.6431511071874ZM1406.8607893470144 542.7794700977793L1385.4619406795246 542.7794700977793L1442.8227433576576 408.6205772018756L1474.0591182875637 408.6205772018756L1532.044054051832 542.7794700977793L1508.297276155548 542.7794700977793L1455.2459638340615 409.2744309111601L1459.9418222916497 409.2744309111601L1406.8607893470144 542.7794700977793ZM1438.1268849000699 546.6431511071874L1368.5806267307266 546.6431511071874L1368.5806267307266 528.6621741018657L1438.1268849000699 528.6621741018657L1438.1268849000699 546.6431511071874ZM1497.1817630977125 494.6320605959264L1418.630156114134 494.6320605959264L1423.5637795569164 478.5829240953088L1492.4561840169754 478.5829240953088L1497.1817630977125 494.6320605959264ZM1548.9550886237794 546.6431511071874L1478.992741730346 546.6431511071874L1478.992741730346 528.6621741018657L1548.9550886237794 528.6621741018657L1548.9550886237794 546.6431511071874ZM1499.7377366885516 417.5962053929618L1417.1441249566697 417.5962053929618L1417.1441249566697 399.85299337283453L1499.7377366885516 399.85299337283453L1499.7377366885516 417.5962053929618ZM1610.149851688171 549.8529784073107L1610.149851688171 549.8529784073107Q1599.4504273544258 549.8529784073107 1589.7317835846075 546.1081798905Q1579.9834191916398 542.3633813736892 1572.1668953033764 535.4087555567548Q1564.3800920382619 528.4541297398207 1559.862557319569 518.4977209848078Q1555.3747432240261 508.54131222979504 1555.3747432240261 496.5639011006304L1555.3747432240261 496.5639011006304Q1555.3747432240261 485.0025786955558 1559.327586102882 475.28393492573736Q1563.310149604887 465.53557053276967 1570.3539372912692 458.37290035379027Q1577.4274456008006 451.21023017481093 1586.6111181539318 447.25738729595514Q1595.8245113302123 443.27482379395 1606.1078469398676 443.27482379395L1606.1078469398676 443.27482379395Q1616.361461926373 443.27482379395 1623.6430145979498 446.3954892246257Q1630.924567269526 449.48643403215203 1636.3634413058467 455.1630730536668Q1641.8320359653167 460.8397120751815 1645.6957169747243 468.9534421949382L1645.6957169747243 468.9534421949382L1639.038297389283 467.25936667542857L1639.038297389283 445.8605180079384L1654.2552564417201 445.8605180079384L1654.2552564417201 481.1686183092972L1645.2499076274848 481.79275139543233Q1641.8320359653167 474.9570080710952 1637.0172950151314 470.26114961350703Q1632.202554064946 465.53557053276967 1625.9909438267437 463.18764130397557Q1619.7793335885417 460.8397120751815 1611.8736478308301 460.8397120751815L1611.8736478308301 460.8397120751815Q1604.3840507972086 460.8397120751815 1598.0832786895585 463.3065237965728Q1591.7527859587594 465.7436148948147 1587.1460893706194 470.4691939755521Q1582.5691134056283 475.1650524331402 1579.894257322192 481.79275139543233Q1577.2194012387558 488.4501709808737 1577.2194012387558 496.3558567385854L1577.2194012387558 496.3558567385854Q1577.2194012387558 507.05528107233044 1582.1233040583888 514.960966830042Q1587.0569275011712 522.896373210903 1594.873451389435 527.265304813849Q1602.6602546545496 531.6639570399441 1611.45755910674 531.8720014019891L1611.45755910674 531.8720014019891Q1622.7811165266203 532.0800457640341 1631.0137291389738 527.7111141610883Q1639.276062374477 523.312461934993 1646.3198500608596 516.684762972701L1646.3198500608596 516.684762972701L1655.741287599185 530.3859702445245Q1646.9737037701439 538.4997003642814 1635.7393082197113 544.176339385796Q1624.5049126692793 549.8529784073107 1610.149851688171 549.8529784073107ZM1727.0113419111872 549.8529784073107L1727.0113419111872 549.8529784073107Q1716.3119175774418 549.8529784073107 1706.5635531844741 546.1081798905Q1696.8151887915064 542.3633813736892 1689.028385526392 535.4087555567548Q1681.211861638128 528.4541297398207 1676.7240475425851 518.4977209848078Q1672.2065128238928 508.54131222979504 1672.2065128238928 496.5639011006304L1672.2065128238928 496.5639011006304Q1672.2065128238928 485.0025786955558 1676.189076325898 475.28393492573736Q1680.1419192047538 465.53557053276967 1687.1857068911359 458.37290035379027Q1694.2592152006673 451.21023017481093 1703.4726083769478 447.25738729595514Q1712.656280930079 443.27482379395 1722.9396165397338 443.27482379395L1722.9396165397338 443.27482379395Q1733.1932315262397 443.27482379395 1740.4747841978165 446.3954892246257Q1747.7563368693927 449.48643403215203 1753.2249315288623 455.1630730536668Q1758.6638055651829 460.8397120751815 1762.527486574591 468.9534421949382L1762.527486574591 468.9534421949382L1755.899787612299 467.25936667542857L1755.899787612299 445.8605180079384L1771.0870260415868 445.8605180079384L1771.0870260415868 481.1686183092972L1762.0816772273515 481.79275139543233Q1758.6638055651829 474.9570080710952 1753.8490646149976 470.26114961350703Q1749.0343236648123 465.53557053276967 1742.8227134266103 463.18764130397557Q1736.6408238115578 460.8397120751815 1728.7054174306968 460.8397120751815L1728.7054174306968 460.8397120751815Q1721.2158203970748 460.8397120751815 1714.9150482894252 463.3065237965728Q1708.584555558626 465.7436148948147 1704.007579593635 470.4691939755521Q1699.400883005495 475.1650524331402 1696.7260269220587 481.79275139543233Q1694.051170838622 488.4501709808737 1694.051170838622 496.3558567385854L1694.051170838622 496.3558567385854Q1694.051170838622 507.05528107233044 1698.9550736582555 514.960966830042Q1703.888697101038 522.896373210903 1711.7052209893018 527.265304813849Q1719.5217448775657 531.6639570399441 1728.2893287066067 531.8720014019891L1728.2893287066067 531.8720014019891Q1739.612886126487 532.0800457640341 1747.8752193619898 527.7111141610883Q1756.1078319743438 523.312461934993 1763.1516196607258 516.684762972701L1763.1516196607258 516.684762972701L1772.5730571990516 530.3859702445245Q1763.8054733700105 538.4997003642814 1752.571077819578 544.176339385796Q1741.3366822691455 549.8529784073107 1727.0113419111872 549.8529784073107ZM1844.9130539444282 549.6449340452657L1844.9130539444282 549.6449340452657Q1834.421673972728 549.6449340452657 1824.4652652177151 546.316224252545Q1814.5088564627026 543.0172350829737 1806.4842882123935 536.5975804827266Q1798.4597199620848 530.1779258824795 1793.7638615044966 520.6376058515568Q1789.0680030469084 511.12700644378344 1789.0680030469084 498.7037859673794L1789.0680030469084 498.7037859673794Q1789.0680030469084 485.4483880427952 1793.8827439970937 475.1650524331402Q1798.697484947279 464.9114374466345 1806.8112150670358 457.83792913710306Q1814.954665809942 450.7644208275716 1825.0002364344027 447.0196223107608Q1835.0755276820123 443.27482379395 1845.7749520157577 443.27482379395L1845.7749520157577 443.27482379395Q1858.6142612162516 443.27482379395 1868.4517874786675 447.25738729595514Q1878.2893137410829 451.21023017481093 1883.9659527625977 458.37290035379027Q1889.6425917841125 465.53557053276967 1889.6425917841125 475.1650524331402L1889.6425917841125 475.1650524331402Q1889.6425917841125 485.0025786955558 1883.7579084005524 491.65999828099723Q1877.8732250169928 498.28769724328936 1868.4517874786675 501.58668641286073Q1859.0303499403417 504.91539620558143 1848.5389699686416 504.91539620558143L1848.5389699686416 504.91539620558143Q1835.4916164061024 504.91539620558143 1825.1191189269994 501.82445139805503Q1814.7466214478968 498.7037859673794 1804.879374562332 494.2159718718363L1804.879374562332 494.2159718718363L1804.6713302002868 481.3766626713422Q1816.0246082433164 486.31028611412466 1825.5352076510899 488.2124059956794Q1835.0755276820123 490.14424650038336 1844.0511558730987 490.14424650038336L1844.0511558730987 490.14424650038336Q1850.886899197436 490.14424650038336 1856.3554938569055 488.4501709808737Q1861.824088516375 486.7263748382148 1865.2419601785436 483.3085031760462Q1868.6598318407123 479.8906315138776 1868.6598318407123 475.1650524331402L1868.6598318407123 475.1650524331402Q1868.6598318407123 468.3293091088031 1862.6562659645551 464.1387012447529Q1856.6824207115474 459.9778140038521 1847.260983173222 459.9778140038521L1847.260983173222 459.9778140038521Q1840.1874748636906 459.9778140038521 1833.4706140319508 462.6526700872883Q1826.7240325770613 465.3275261707246 1821.2554379175917 470.26114961350703Q1815.8165638812711 475.1650524331402 1812.4878540885506 482.1196782500745Q1809.1591442958297 489.0743040670088 1809.1591442958297 498.0796528812443L1809.1591442958297 498.0796528812443Q1809.1591442958297 508.54131222979504 1814.3008121006574 516.1497917560138Q1819.442479905485 523.7582712822325 1827.675092517839 527.7111141610883Q1835.9077051301924 531.6639570399441 1845.537187030563 531.6639570399441L1845.537187030563 531.6639570399441Q1857.5443187828769 531.6639570399441 1866.6388294665603 527.7111141610883Q1875.7333401502437 523.7582712822325 1882.7771278366258 517.7547054060756L1882.7771278366258 517.7547054060756L1891.7824766508616 531.6639570399441Q1885.7789107747044 536.8056248447717 1878.82428495777 540.8773502162246Q1871.8696591408357 544.9193549645283 1863.429002166437 547.2970048164716Q1854.9586245688888 549.6449340452657 1844.9130539444282 549.6449340452657ZM1965.3707395685083 549.6449340452657L1965.3707395685083 549.6449340452657Q1957.8811425348867 549.6449340452657 1950.6293104864594 547.831976033159Q1943.3477578148827 545.9892973979029 1936.6011763599936 542.4822638662863Q1929.8545949051045 538.9455097115206 1924.5048827382316 534.3388131233804Q1919.1551705713591 529.7321165352402 1915.3212101851004 523.9663156442775L1915.3212101851004 523.9663156442775L1925.3667808095615 524.1743600063226L1925.3667808095615 546.8511954692324L1909.7337330330338 546.8511954692324L1909.7337330330338 514.1287893818619L1918.5310374852238 513.2668913105324Q1923.6429846669025 519.0326922014951 1931.0434198310759 524.2932424989198Q1938.4141343721003 529.5240721731951 1946.7656294770513 532.7338994733186Q1955.1171245820024 535.9437267734422 1963.4686196869534 535.9437267734422L1963.4686196869534 535.9437267734422Q1968.8183318538263 535.9437267734422 1972.7711747326816 534.6657399780227Q1976.7240176115379 533.3877531826031 1978.8639024782865 530.5940146065695Q1981.0037873450356 527.8002760305362 1981.0037873450356 523.9663156442775L1981.0037873450356 523.9663156442775Q1981.0037873450356 520.5484439821089 1979.0719468403317 517.7547054060756Q1977.140106335628 514.960966830042 1973.3061459493692 512.8210819632931Q1969.4424649399612 510.68119709654405 1963.7658259184464 508.6601947223922Q1958.118907520081 506.63919234824033 1950.3915455012648 504.7073518435364L1950.3915455012648 504.7073518435364Q1938.6221787341456 501.49752454341285 1929.6465505430592 497.2177548099148Q1920.6709223519733 492.9379850764168 1915.4103720545486 486.6074923456176Q1910.1795423802732 480.30672023796774 1910.1795423802732 471.33109204688157L1910.1795423802732 471.33109204688157Q1910.1795423802732 463.3956856660206 1914.548473983219 457.09491355837076Q1918.9471262093143 450.7644208275716 1926.852811967026 446.9304604413129Q1934.7882183478869 443.066779431905 1945.4876426816318 443.066779431905L1945.4876426816318 443.066779431905Q1955.1171245820024 443.066779431905 1964.0035909036405 446.1874448625806Q1972.8603366021298 449.27838967010695 1979.7258005496165 454.83614619902454Q1986.5615438739533 460.39390272794213 1990.425224883361 468.121264746758L1990.425224883361 468.121264746758L1981.6576410543198 467.8834997615637L1981.6576410543198 445.8605180079384L1997.0529238456534 445.8605180079384L1997.0529238456534 478.37487973326375L1988.077295654567 479.4448221666383Q1984.0055702831141 472.4010344802561 1977.675077552315 467.25936667542857Q1971.374305444665 462.1176988706011 1964.3007971351335 459.4428427871648Q1957.2570094487514 456.7679867037285 1950.6293104864594 456.7679867037285L1950.6293104864594 456.7679867037285Q1945.0418333343923 456.7679867037285 1940.5540192388494 458.2540178611931Q1936.0662051433064 459.769769641807 1933.5102315524673 462.53378759469115Q1930.9245373384788 465.3275261707246 1930.9245373384788 469.19120718013255L1930.9245373384788 469.19120718013255Q1930.9245373384788 472.4010344802561 1932.9752603357801 474.9570080710952Q1934.9962627099321 477.51298166193425 1938.8599437193398 479.56370465923544Q1942.6939041055984 481.58470703338725 1948.1624987650684 483.51654753809123Q1953.6013728013886 485.4483880427952 1960.67488111092 487.3802285474992L1960.67488111092 487.3802285474992Q1972.2362035159945 490.59005584762275 1981.5387585617227 494.9589874505686Q1990.8413136074514 499.35763967666384 1996.309908266921 505.86645614635876Q2001.7487823032416 512.404993239203 2001.7487823032416 522.2425195016185L2001.7487823032416 522.2425195016185Q2001.7487823032416 530.8020589686146 1996.844879483608 536.8947867142194Q1991.9112560408257 543.0172350829737 1983.6786434284718 546.316224252545Q1975.4460308161183 549.6449340452657 1965.3707395685083 549.6449340452657Z " fill="#ffffff" transform="matrix(0.4371178109905442,0,0,0.43711781099054425,0,92.43329641295442)"/></g></svg>